<svg xmlns="http://www.w3.org/2000/svg" viewBox="0 0 24 24"><path d="M8.5 2C6.567 2 5 3.567 5 5.5C5 7.433 6.567 9 8.5 9H15.5C17.433 9 19 7.433 19 5.5C19 3.567 17.433 2 15.5 2H8.5Z" fill="#0ACF83"/><path d="M15.5 9C17.433 9 19 10.567 19 12.5C19 14.433 17.433 16 15.5 16C13.567 16 12 14.433 12 12.5C12 10.567 13.567 9 15.5 9Z" fill="#A259FF"/><path d="M5 12.5C5 10.567 6.567 9 8.5 9H12V16H8.5C6.567 16 5 14.433 5 12.5Z" fill="#F24E1E"/><path d="M5 19.5C5 17.567 6.567 16 8.5 16H12V19.5C12 21.433 10.433 23 8.5 23C6.567 23 5 21.433 5 19.5Z" fill="#FF7262"/><path d="M12 2H15.5C17.433 2 19 3.567 19 5.5C19 7.433 17.433 9 15.5 9H12V2Z" fill="#1ABCFE"/></svg>