<svg xmlns="http://www.w3.org/2000/svg" viewBox="0 0 24 24" fill="#61DAFB"><path d="M12 13.5C12.8284 13.5 13.5 12.8284 13.5 12C13.5 11.1716 12.8284 10.5 12 10.5C11.1716 10.5 10.5 11.1716 10.5 12C10.5 12.8284 11.1716 13.5 12 13.5Z"/><path d="M12 22.5C11.7883 22.5 11.5765 22.4677 11.3647 22.4032C10.1235 22.0161 9.07059 20.6774 8.31529 18.6194C8.25176 18.4516 8.19529 18.2839 8.14235 18.1161C8.02588 18.1452 7.90941 18.1742 7.79294 18.2C5.84471 18.7548 4.35529 18.7516 3.63529 18.1935C2.91529 17.6355 2.61176 16.2581 3.05647 14.2645C3.12 14.0032 3.19059 13.7419 3.27529 13.4806C3.12 13.3935 2.96824 13.3032 2.82353 13.2097C1.08706 12.0097 0.24 10.7226 0.24 9.49999C0.24 8.27741 1.08706 6.99031 2.82353 5.79031C2.96824 5.69676 3.12 5.60644 3.27529 5.51935C3.19059 5.25805 3.12 4.99676 3.05647 4.73547C2.61176 2.74193 2.91529 1.36451 3.63529 0.806444C4.35529 0.248379 5.84471 0.245153 7.79294 0.799992C7.90941 0.825798 8.02588 0.854831 8.14235 0.883863C8.19529 0.716121 8.25176 0.548379 8.31529 0.380637C9.07059 -1.67742 10.1235 -3.01613 11.3647 -3.40323C12.6059 -3.79032 14.0659 -3.01613 15.4965 -0.896774C15.6 -0.748411 15.7035 -0.593572 15.8071 -0.432257C15.9365 -0.467742 16.0659 -0.503227 16.1953 -0.535485C18.1435 -1.09032 19.6329 -1.08709 20.3529 -0.529024C21.0729 0.0290323 21.3765 1.40645 20.9318 3.39999C20.8682 3.66129 20.7976 3.92258 20.7129 4.18387C20.8682 4.27097 21.02 4.36129 21.1647 4.45483C22.9012 5.65483 23.7482 6.94193 23.7482 8.16451C23.7482 9.38709 22.9012 10.6742 21.1647 11.8742C21.02 11.9677 20.8682 12.0581 20.7129 12.1452C20.7976 12.4065 20.8682 12.6677 20.9318 12.929C21.3765 14.9226 21.0729 16.3 20.3529 16.8581C19.6329 17.4161 18.1435 17.4194 16.1953 16.8645C16.0788 16.8387 15.9624 16.8097 15.8459 16.7806C15.7424 16.9419 15.6388 17.0968 15.5353 17.2452C14.1047 19.3645 12.6447 20.1387 11.4035 19.7516C11.2659 19.7161 11.1318 19.6677 11 19.6097"/><path d="M11.9999 20.8C11.1764 20.8 10.2352 20.3935 9.32932 19.6C9.14873 19.4516 8.96814 19.2871 8.78755 19.1097C8.51932 19.1871 8.25108 19.2581 7.98285 19.3226C6.47108 19.7548 5.24932 19.7677 4.47108 19.2C3.69285 18.6323 3.36814 17.4645 3.72932 15.7677C3.78579 15.5419 3.84873 15.3161 3.92285 15.0903C3.69285 14.9677 3.46932 14.8387 3.25108 14.7C1.83285 13.7 1.03285 12.6 1.03285 11.5C1.03285 10.4 1.83285 9.3 3.25108 8.3C3.46932 8.16129 3.69285 8.03226 3.92285 7.90968C3.84873 7.68387 3.78579 7.45806 3.72932 7.23226C3.36814 5.53548 3.69285 4.36774 4.47108 3.8C5.24932 3.23226 6.47108 3.24516 7.98285 3.67742C8.25108 3.74193 8.51932 3.81291 8.78755 3.89032C8.96814 3.71291 9.14873 3.54839 9.32932 3.4C10.2352 2.60645 11.1764 2.2 11.9999 2.2C12.8235 2.2 13.7646 2.60645 14.6705 3.4C14.8511 3.54839 15.0317 3.71291 15.2123 3.89032C15.4805 3.81291 15.7488 3.74193 16.017 3.67742C17.5288 3.24516 18.7505 3.23226 19.5288 3.8C20.307 4.36774 20.6317 5.53548 20.2705 7.23226C20.2141 7.45806 20.1511 7.68387 20.077 7.90968C20.307 8.03226 20.5305 8.16129 20.7488 8.3C22.167 9.3 22.967 10.4 22.967 11.5C22.967 12.6 22.167 13.7 20.7488 14.7C20.5305 14.8387 20.307 14.9677 20.077 15.0903C20.1511 15.3161 20.2141 15.5419 20.2705 15.7677C20.6317 17.4645 20.307 18.6323 19.5288 19.2C18.7505 19.7677 17.5288 19.7548 16.017 19.3226C15.7488 19.2581 15.4805 19.1871 15.2123 19.1097C15.0317 19.2871 14.8511 19.4516 14.6705 19.6C13.7646 20.3935 12.8235 20.8 11.9999 20.8ZM9.01108 17.8C9.10873 17.8 9.20638 17.8323 9.28697 17.8968C9.51697 18.0968 9.74697 18.2903 9.97697 18.4774C10.6399 19.0387 11.3223 19.3 11.9999 19.3C12.6776 19.3 13.3599 19.0387 14.0229 18.4774C14.2529 18.2903 14.4829 18.0968 14.7129 17.8968C14.8776 17.7677 15.1199 17.7677 15.2846 17.8968C15.5976 18.0387 15.9105 18.1677 16.2235 18.2774C17.4452 18.6387 18.3899 18.6516 18.8776 18.3C19.3652 17.9484 19.5846 17.1161 19.3017 15.7C19.2517 15.5032 19.1952 15.3 19.1323 15.0968C19.0758 14.9097 19.1458 14.7097 19.2964 14.6C19.5458 14.4387 19.7952 14.2645 20.0317 14.0903C21.1758 13.2774 21.7999 12.4 21.7999 11.5C21.7999 10.6 21.1758 9.72258 20.0317 8.90968C19.7952 8.73548 19.5458 8.56129 19.2964 8.4C19.1458 8.29032 19.0758 8.09032 19.1323 7.90323C19.1952 7.7 19.2517 7.49677 19.3017 7.3C19.5846 5.88387 19.3652 5.05161 18.8776 4.7C18.3899 4.34839 17.4452 4.36129 16.2235 4.72258C15.9105 4.83226 15.5976 4.96129 15.2846 5.10323C15.1199 5.23226 14.8776 5.23226 14.7129 5.10323C14.4829 4.90323 14.2529 4.70968 14.0229 4.52258C13.3599 3.96129 12.6776 3.7 11.9999 3.7C11.3223 3.7 10.6399 3.96129 9.97697 4.52258C9.74697 4.70968 9.51697 4.90323 9.28697 5.10323C9.12226 5.23226 8.87991 5.23226 8.71521 5.10323C8.40226 4.96129 8.08932 4.83226 7.77638 4.72258C6.55462 4.36129 5.60991 4.34839 5.12226 4.7C4.63462 5.05161 4.41521 5.88387 4.69814 7.3C4.74814 7.49677 4.80462 7.7 4.86755 7.90323C4.92403 8.09032 4.85403 8.29032 4.70344 8.4C4.45403 8.56129 4.20462 8.73548 3.96814 8.90968C2.82403 9.72258 2.19991 10.6 2.19991 11.5C2.19991 12.4 2.82403 13.2774 3.96814 14.0903C4.20462 14.2645 4.45403 14.4387 4.70344 14.6C4.85403 14.7097 4.92403 14.9097 4.86755 15.0968C4.80462 15.3 4.74814 15.5032 4.69814 15.7C4.41521 17.1161 4.63462 17.9484 5.12226 18.3C5.60991 18.6516 6.55462 18.6387 7.77638 18.2774C8.08932 18.1677 8.40226 18.0387 8.71521 17.8968C8.80638 17.8323 8.90403 17.8 9.01108 17.8Z"/><path d="M11.9999 14.3C10.7293 14.3 9.69995 13.2806 9.69995 12C9.69995 10.7194 10.7293 9.7 11.9999 9.7C13.2705 9.7 14.2999 10.7194 14.2999 12C14.2999 13.2806 13.2705 14.3 11.9999 14.3ZM11.9999 11.2C11.5587 11.2 11.1999 11.5548 11.1999 12C11.1999 12.4452 11.5587 12.8 11.9999 12.8C12.4411 12.8 12.7999 12.4452 12.7999 12C12.7999 11.5548 12.4411 11.2 11.9999 11.2Z"/></svg>