<svg xmlns="http://www.w3.org/2000/svg" viewBox="0 0 24 24" fill="#21759b"><path d="M12 2C6.486 2 2 6.486 2 12s4.486 10 10 10 10-4.486 10-10S17.514 2 12 2zm0 19.5c-5.247 0-9.5-4.253-9.5-9.5S6.753 2.5 12 2.5s9.5 4.253 9.5 9.5-4.253 9.5-9.5 9.5z"/><path d="M3.176 12c0 4.009 2.328 7.477 5.707 9.111L4.197 8.049A8.838 8.838 0 003.176 12zM12 3.5c-1.169 0-2.294.211-3.334.591.941.29 1.601.744 2.171 1.362.682.744 1.262 1.702 1.262 3.092 0 .954-.301 2.159-.702 3.583l-.922 3.082 2.803-8.375c.522-1.312.702-2.361.702-3.293 0-.361-.021-.702-.06-1.022A8.549 8.549 0 0112 3.5zm-1.262 16.902c1.022.301 2.114.471 3.242.471 1.336 0 2.613-.241 3.795-.682-.06-.12-.12-.241-.181-.361l-6.856-18.8zM19.803 8.049l-4.354 12.63c2.613-1.522 4.384-4.354 4.384-7.628 0-1.783-.542-3.444-1.462-4.826.181-.06.301-.12.482-.181.301-.12.602-.241.95-.361v.366z"/></svg>